<?xml version="1.0" encoding="utf-8"?>
<!-- Generator: Adobe Illustrator 24.0.2, SVG Export Plug-In . SVG Version: 6.00 Build 0)  -->
<svg version="1.1" id="Layer_1" xmlns="http://www.w3.org/2000/svg" xmlns:xlink="http://www.w3.org/1999/xlink" x="0px" y="0px"
	 viewBox="0 0 64 64" style="enable-background:new 0 0 64 64;" xml:space="preserve">
<path d="M38.8,29.6l-11.3-3.3c-1.3-0.4-2.2-1.6-2.2-3c0-1.7,1.4-3.1,3.1-3.1h6.9c1.3,0,2.5,0.4,3.6,1.1
	c0.6,0.4,1.5,0.3,2-0.2l3.6-3.6c0.7-0.7,0.6-1.9-0.2-2.6c-2.6-2-5.8-3.1-9-3.1v-5c0-0.9-0.8-1.7-1.7-1.7h-3.3
	c-0.9,0-1.7,0.8-1.7,1.7v5h-0.3c-6.7,0-12,5.7-11.4,12.5c0.4,4.8,4.1,8.7,8.8,10.1l10.7,3.1c1.3,0.4,2.2,1.6,2.2,3
	c0,1.7-1.4,3.1-3.1,3.1h-6.9c-1.3,0-2.5-0.4-3.6-1.1c-0.6-0.4-1.5-0.3-2,0.2l-3.6,3.6c-0.7,0.7-0.6,1.9,0.2,2.6c2.6,2,5.8,3.1,9,3.1
	v5c0,0.9,0.8,1.7,1.7,1.7h3.3c0.9,0,1.7-0.8,1.7-1.7v-5c4.9-0.1,9.4-3,11-7.6C48.6,38,44.9,31.4,38.8,29.6L38.8,29.6z"/>
</svg>
