<?xml version="1.0" encoding="utf-8"?>
<!-- Generator: Adobe Illustrator 24.0.2, SVG Export Plug-In . SVG Version: 6.00 Build 0)  -->
<svg version="1.1" id="Layer_1" xmlns="http://www.w3.org/2000/svg" xmlns:xlink="http://www.w3.org/1999/xlink" x="0px" y="0px"
	 viewBox="0 0 64 64" style="enable-background:new 0 0 64 64;" xml:space="preserve">
<g style="enable-background:new    ;">
	<path d="M62.7,35.3v13.2c0,1.6-0.9,3.1-2.4,3.9l-12,6c-1.2,0.6-2.7,0.6-3.9,0L32,52.2l-12.5,6.2
		c-1.2,0.6-2.7,0.6-3.9,0l-12-6c-1.5-0.7-2.4-2.2-2.4-3.9V35.3c0-1.8,1.1-3.4,2.8-4L15.7,27V14c0-1.8,1.1-3.4,2.8-4l12-4.5
		c1-0.4,2.1-0.4,3,0l12,4.5c1.7,0.6,2.8,2.2,2.8,4v13l11.6,4.3C61.6,31.9,62.7,33.5,62.7,35.3z M29.8,35.2l-12.2-4.6L5.4,35.2v0.1
		l12.2,5L29.8,35.2L29.8,35.2z M29.8,39.7l-10.2,4.7v9.5l10.2-5.1V39.7z M19.8,13.9l12.2,5l12.2-5v-0.1L32,9.2L19.8,13.9L19.8,13.9z
		 M44.2,18.3L34,22.7v8.2l10.2-3.8V18.3z M58.6,35.2l-12.2-4.6l-12.2,4.6v0.1l12.2,5L58.6,35.2L58.6,35.2z M58.6,39.7l-10.2,4.7v9.5
		l10.2-5.1V39.7z"/>
</g>
</svg>
