<?xml version="1.0" encoding="utf-8"?>
<!-- Generator: Adobe Illustrator 24.0.2, SVG Export Plug-In . SVG Version: 6.00 Build 0)  -->
<svg version="1.1" id="Layer_1" xmlns="http://www.w3.org/2000/svg" xmlns:xlink="http://www.w3.org/1999/xlink" x="0px" y="0px"
	 viewBox="0 0 64 64" style="enable-background:new 0 0 64 64;" xml:space="preserve">
<g style="enable-background:new    ;">
	<path d="M59.4,33c0,15.1-12.3,27.4-27.4,27.4S4.6,48.1,4.6,33S16.9,5.6,32,5.6S59.4,17.8,59.4,33z M54.1,33
		c0-12.2-9.9-22.1-22.1-22.1S9.9,20.8,9.9,33S19.8,55,32,55S54.1,45.2,54.1,33z M29.4,36.7c-0.3-0.3-0.5-0.7-0.5-1.1V17.5
		c0-0.7,0.6-1.3,1.3-1.3h3.5c0.7,0,1.3,0.6,1.3,1.3v15.6l7.4,5.4c0.6,0.4,0.7,1.3,0.3,1.9l-2.1,2.9c-0.4,0.6-1.3,0.7-1.9,0.3
		L29.4,36.7z"/>
</g>
</svg>
