<?xml version="1.0" encoding="utf-8"?>
<!-- Generator: Adobe Illustrator 24.0.2, SVG Export Plug-In . SVG Version: 6.00 Build 0)  -->
<svg version="1.1" id="Layer_1" xmlns="http://www.w3.org/2000/svg" xmlns:xlink="http://www.w3.org/1999/xlink" x="0px" y="0px"
	 viewBox="0 0 94.3 31.1" style="enable-background:new 0 0 94.3 31.1;" xml:space="preserve">
<g id="Group_8" transform="translate(-634.168 -369.304)">
	<g id="Group_4">
		<g id="Group_5">
			<path id="Path_1" style="fill:#45BA88;" d="M635.9,379.1h9l-9.4,8.6l0,3.2h13.9v-3.2h-8.5l8.9-8l0,0v-3.6h-13.9V379.1z"/>
			<path id="Path_2" style="fill:#45BA88;" d="M662.2,376.1l-3.5,9.9l-4.1-9.9h-4l6,14.1c0.2,0.4,0.2,0.9,0,1.3l-3,8h4.1l8.4-23.4
				H662.2z"/>
			<path id="Path_3" style="fill:#45BA88;" d="M680.4,378c-0.7-0.7-1.5-1.2-2.3-1.6c-0.9-0.4-1.9-0.6-2.8-0.6
				c-1.7-0.1-3.4,0.7-4.4,2.1v-1.9H667v23.4h3.8v-16.4c0-0.5,0.1-1,0.3-1.5c0.4-0.9,1.1-1.7,2.1-2.1c1-0.4,2.1-0.4,3.1,0
				c0.5,0.2,0.9,0.5,1.3,0.8c0.4,0.4,0.7,0.8,0.8,1.2c0.2,0.4,0.3,0.9,0.3,1.4c0,0.5-0.1,1.1-0.3,1.6c-0.2,0.4-0.5,0.8-0.8,1.1
				c-0.4,0.4-0.8,0.7-1.3,0.9c-0.5,0.2-1,0.3-1.5,0.3c-0.5,0-1.1-0.1-1.5-0.3l0,0l-1.4,2.5v0c1,0.8,2.2,1.1,3.4,1.1
				c1,0,1.9-0.2,2.8-0.6c1.8-0.7,3.1-2.1,3.9-3.9c0.4-0.9,0.6-1.8,0.6-2.7c0-0.9-0.2-1.8-0.6-2.7C681.5,379.4,681,378.7,680.4,378z"
				/>
			<path id="Path_4" style="fill:#45BA88;" d="M713.8,383c0-0.9-0.2-1.9-0.6-2.7c-0.4-0.8-0.9-1.6-1.5-2.2c-2.8-2.8-7.4-2.8-10.2,0
				c-0.7,0.6-1.2,1.4-1.5,2.2c-0.8,1.7-0.8,3.7,0,5.5c0.4,0.8,0.9,1.6,1.5,2.2c2.8,2.8,7.4,2.8,10.2,0c0.7-0.6,1.2-1.4,1.5-2.2
				C713.6,384.8,713.8,383.9,713.8,383z M709.6,384.4c-0.2,0.5-0.4,0.9-0.7,1.2c-0.3,0.3-0.7,0.6-1.1,0.8c-0.4,0.2-0.8,0.3-1.3,0.3
				c-0.5,0-0.9-0.1-1.3-0.3c-0.4-0.2-0.8-0.5-1.1-0.8c-0.3-0.4-0.6-0.8-0.7-1.2c-0.2-0.5-0.3-1-0.3-1.5c0-0.5,0.1-1,0.3-1.5
				c0.2-0.4,0.4-0.8,0.7-1.2c0.3-0.3,0.7-0.6,1.1-0.8c0.4-0.2,0.9-0.3,1.3-0.3c0.4,0,0.9,0.1,1.3,0.3c0.4,0.2,0.8,0.5,1.1,0.8
				c0.3,0.4,0.6,0.8,0.7,1.2c0.2,0.5,0.3,1,0.3,1.5C709.9,383.4,709.8,383.9,709.6,384.4z"/>
			<path id="Path_5" style="fill:#45BA88;" d="M727.2,376.1L727.2,376.1l-4.5,0l-2.8,4.7l-2.8-4.7h-4.5l5.1,7l5.1,6.8v0h4.6
				l-5.1-6.9L727.2,376.1z"/>
			<path id="Path_6" style="fill:#45BA88;" d="M712.5,390h4.5l2.6-3.5l-3.4-1.6L712.5,390z"/>
			<path id="Path_20" style="fill:#45BA88;" d="M687.6,370.5h-3.7V390h3.7V370.5z"/>
			<path id="Path_21" style="fill:#45BA88;" d="M697.9,390l0-7.9c0-2-0.9-3.8-2.6-4.9c-1.1-0.6-2.3-0.9-3.5-0.7
				c-2.4,0.2-3.4,0.9-4.2,1.8v3.9c0.1-0.8,0.5-1.4,1.1-1.9c0.7-0.6,1.6-0.9,2.5-0.9c0.5-0.1,1,0,1.5,0.2c1,0.5,1.6,1.5,1.6,2.5v7.9
				H697.9z"/>
		</g>
	</g>
	<g id="SOFTWARE_SYSTEMS">
		<g style="enable-background:new    ;">
			<path style="fill:#505150;" d="M677.5,397.7c0-0.3-0.1-0.5-0.3-0.6c-0.2-0.1-0.5-0.3-1-0.5c-0.5-0.2-0.9-0.3-1.2-0.5
				c-0.8-0.4-1.2-1-1.2-1.7c0-0.4,0.1-0.7,0.3-1c0.2-0.3,0.5-0.5,0.9-0.7s0.9-0.3,1.4-0.3c0.5,0,1,0.1,1.3,0.3
				c0.4,0.2,0.7,0.4,0.9,0.8c0.2,0.3,0.3,0.7,0.3,1.1h-1.5c0-0.3-0.1-0.6-0.3-0.8c-0.2-0.2-0.5-0.3-0.9-0.3c-0.4,0-0.6,0.1-0.8,0.2
				c-0.2,0.1-0.3,0.3-0.3,0.6c0,0.2,0.1,0.4,0.3,0.6c0.2,0.2,0.6,0.3,1,0.4c0.8,0.2,1.4,0.6,1.8,0.9c0.4,0.4,0.6,0.8,0.6,1.4
				c0,0.6-0.2,1.1-0.7,1.4c-0.5,0.3-1.1,0.5-1.9,0.5c-0.5,0-1-0.1-1.5-0.3c-0.4-0.2-0.8-0.5-1-0.8c-0.2-0.3-0.4-0.7-0.4-1.2h1.5
				c0,0.8,0.5,1.2,1.4,1.2c0.3,0,0.6-0.1,0.8-0.2S677.5,398,677.5,397.7z"/>
			<path style="fill:#505150;" d="M686.1,396.2c0,0.7-0.1,1.3-0.4,1.8c-0.2,0.5-0.6,0.9-1.1,1.2c-0.5,0.3-1,0.4-1.6,0.4
				c-0.6,0-1.1-0.1-1.6-0.4c-0.5-0.3-0.8-0.7-1.1-1.2c-0.3-0.5-0.4-1.1-0.4-1.8v-0.3c0-0.7,0.1-1.3,0.4-1.8c0.3-0.5,0.6-0.9,1.1-1.2
				c0.5-0.3,1-0.4,1.6-0.4c0.6,0,1.1,0.1,1.6,0.4c0.5,0.3,0.8,0.7,1.1,1.2c0.3,0.5,0.4,1.1,0.4,1.8V396.2z M684.6,395.9
				c0-0.7-0.1-1.3-0.4-1.7c-0.3-0.4-0.6-0.6-1.1-0.6c-0.5,0-0.9,0.2-1.1,0.6c-0.3,0.4-0.4,0.9-0.4,1.7v0.3c0,0.7,0.1,1.3,0.4,1.7
				c0.3,0.4,0.6,0.6,1.1,0.6c0.5,0,0.9-0.2,1.1-0.6c0.3-0.4,0.4-0.9,0.4-1.7V395.9z"/>
			<path style="fill:#505150;" d="M691.7,396.7h-2.8v2.9h-1.5v-7.1h4.6v1.2h-3.1v1.8h2.8V396.7z"/>
			<path style="fill:#505150;" d="M698.7,393.7h-2.2v5.9h-1.5v-5.9h-2.1v-1.2h5.7V393.7z"/>
			<path style="fill:#505150;" d="M705.5,397.5l0.9-5h1.4l-1.6,7.1h-1.5l-1.1-4.7l-1.1,4.7h-1.5l-1.6-7.1h1.4l1,5l1.2-5h1.2
				L705.5,397.5z"/>
			<path style="fill:#505150;" d="M712.8,398.1h-2.5l-0.5,1.5h-1.5l2.6-7.1h1.3l2.6,7.1h-1.5L712.8,398.1z M710.6,396.9h1.8
				l-0.9-2.6L710.6,396.9z"/>
			<path style="fill:#505150;" d="M718.4,397h-1.2v2.6h-1.5v-7.1h2.6c0.8,0,1.5,0.2,1.9,0.6c0.5,0.4,0.7,0.9,0.7,1.6
				c0,0.5-0.1,0.9-0.3,1.2c-0.2,0.3-0.5,0.6-0.9,0.8l1.5,2.9v0.1h-1.6L718.4,397z M717.3,395.8h1.2c0.4,0,0.6-0.1,0.8-0.3
				s0.3-0.4,0.3-0.8c0-0.3-0.1-0.6-0.3-0.8s-0.5-0.3-0.9-0.3h-1.2V395.8z"/>
			<path style="fill:#505150;" d="M726.8,396.5H724v1.9h3.3v1.2h-4.7v-7.1h4.7v1.2H724v1.7h2.8V396.5z"/>
		</g>
	</g>
</g>
</svg>
