<?xml version="1.0" encoding="utf-8"?>
<!-- Generator: Adobe Illustrator 24.0.2, SVG Export Plug-In . SVG Version: 6.00 Build 0)  -->
<svg version="1.1" baseProfile="tiny" id="Layer_1" xmlns="http://www.w3.org/2000/svg" xmlns:xlink="http://www.w3.org/1999/xlink"
	 x="0px" y="0px" viewBox="0 0 40 40" xml:space="preserve">
<g id="Group_12" transform="translate(22.08 23.51)">
	
		<line id="Line_3" fill="none" stroke="currentColor" stroke-width="1.5" stroke-linecap="square" stroke-linejoin="round" x1="-2.1" y1="6" x2="-2.1" y2="9.2"/>
	
		<line id="Line_4" fill="none" stroke="currentColor" stroke-width="1.5" stroke-linecap="square" stroke-linejoin="round" x1="-2.1" y1="-15.5" x2="-2.1" y2="-12.3"/>
	<path id="Path_33" fill="none" stroke="currentColor" stroke-width="1.5" stroke-linecap="square" stroke-linejoin="round" d="M-8.1,0.9
		c-0.1,1.4,0.5,2.8,1.6,3.7C-5.2,5.5-3.7,6-2.2,5.9c0.1,0,0.6,0,0.7,0c1.4,0,2.8-0.4,3.9-1.2C3.3,4,3.8,3,3.9,2c0-0.2,0-0.4,0-0.6
		c0-0.5-0.1-0.9-0.3-1.3C3.5-0.1,3.4-0.2,3.3-0.3C3-0.8,2.6-1.2,2.1-1.5C1.6-1.8,1-2.1,0.4-2.4c-0.5-0.2-1.2-0.5-2-0.7l-0.8-0.3
		c-0.9-0.2-1.8-0.6-2.6-1C-5.8-4.7-6.4-5.3-7-5.9c-0.4-0.6-0.7-1.3-0.7-2V-8c0-1.2,0.5-2.3,1.5-3c1-0.8,2.3-1.2,3.6-1.2
		c0.1,0,0.6,0,0.7,0c1.5,0,2.9,0.5,4,1.4c1,1,1.5,2.3,1.4,3.6"/>
</g>
</svg>
