<?xml version="1.0" encoding="utf-8"?>
<!-- Generator: Adobe Illustrator 24.0.2, SVG Export Plug-In . SVG Version: 6.00 Build 0)  -->
<svg version="1.1" baseProfile="tiny" id="Layer_1" xmlns="http://www.w3.org/2000/svg" xmlns:xlink="http://www.w3.org/1999/xlink"
	 x="0px" y="0px" viewBox="0 0 40 40" xml:space="preserve">
<g id="pricetags-outline" transform="translate(7 40)">
	<path id="Path_24" fill="none" stroke="currentColor" stroke-width="1.5" stroke-linecap="square" d="M20.6-31h-6.2
		c-0.2,0-0.4,0.1-0.5,0.2L1.4-18.4c-0.6,0.6-0.6,1.5,0,2.1l5.9,5.9c0.6,0.6,1.5,0.6,2.1,0l12.4-12.4c0.1-0.1,0.2-0.3,0.2-0.5v-6.2
		C22.1-30.3,21.4-31,20.6-31C20.6-31,20.6-31,20.6-31z"/>
	<path id="Path_25" fill="currentColor" d="M18-25.3c-0.9,0-1.6-0.7-1.6-1.6s0.7-1.6,1.6-1.6c0.9,0,1.6,0.7,1.6,1.6l0,0
		C19.6-26.1,18.9-25.3,18-25.3z"/>
	<path id="Path_26" fill="none" stroke="currentColor" stroke-width="1.5" stroke-linecap="square" d="M11.8-8.3l13.3-13.3
		c0.1-0.1,0.2-0.3,0.2-0.5v-6.5"/>
</g>
</svg>
